<?xml version="1.0" standalone="no"?>
<!DOCTYPE svg PUBLIC "-//W3C//DTD SVG 20010904//EN"
 "http://www.w3.org/TR/2001/REC-SVG-20010904/DTD/svg10.dtd">
<svg version="1.0" xmlns="http://www.w3.org/2000/svg"
 width="260.000000pt" height="260.000000pt" viewBox="0 0 260.000000 260.000000"
 preserveAspectRatio="xMidYMid meet">
<metadata>
Created by potrace 1.11, written by Peter Selinger 2001-2013
</metadata>
<g transform="translate(0.000000,260.000000) scale(0.100000,-0.100000)"
fill="#000000" stroke="none">
<path d="M280 1817 c0 -1 -38 -194 -85 -427 -47 -233 -85 -428 -85 -433 0 -4
26 -7 57 -5 l57 3 75 373 c40 205 75 371 77 369 3 -3 104 -557 104 -570 0 -5
28 -7 62 -5 l62 3 166 286 c91 158 166 284 168 280 1 -3 -31 -172 -72 -374
l-73 -367 58 0 c33 0 59 1 59 3 0 1 38 194 85 427 47 233 85 428 85 432 0 4
-39 8 -87 8 l-88 0 -134 -233 c-202 -347 -203 -349 -206 -345 -4 3 -105 558
-105 572 0 4 -40 6 -90 6 -49 0 -90 -1 -90 -3z"/>
<path d="M1809 1718 c16 -35 58 -126 95 -202 55 -116 64 -141 54 -155 -7 -9
-91 -106 -187 -216 -96 -110 -181 -208 -189 -217 -14 -17 -11 -18 49 -18 l64
0 160 186 160 186 50 -108 c28 -60 66 -144 85 -186 l35 -77 63 -1 c34 0 62 2
62 5 0 2 -45 102 -100 220 -55 119 -100 220 -100 225 0 5 81 102 180 215 l181
205 -65 0 -64 0 -139 -160 c-76 -88 -140 -160 -143 -160 -3 0 -38 72 -79 160
l-74 160 -63 0 -63 0 28 -62z"/>
<path d="M1300 1417 c0 -1 -38 -194 -85 -427 -47 -233 -85 -428 -85 -432 0 -4
26 -8 59 -8 l58 0 82 413 c45 226 85 422 88 435 5 21 2 22 -56 22 -34 0 -61
-1 -61 -3z"/>
</g>
</svg>
