<?xml version="1.0" standalone="no"?>
<!DOCTYPE svg PUBLIC "-//W3C//DTD SVG 20010904//EN"
 "http://www.w3.org/TR/2001/REC-SVG-20010904/DTD/svg10.dtd">
<svg version="1.0" xmlns="http://www.w3.org/2000/svg"
 width="260.000000pt" height="260.000000pt" viewBox="0 0 260.000000 260.000000"
 preserveAspectRatio="xMidYMid meet">
<metadata>
Created by potrace 1.11, written by Peter Selinger 2001-2013
</metadata>
<g transform="translate(0.000000,260.000000) scale(0.100000,-0.100000)"
fill="#000000" stroke="none">
<path d="M222 2546 c0 -32 2 -34 42 -40 51 -8 89 -14 134 -21 l32 -6 0 -709 0
-709 -47 -7 c-27 -5 -50 -9 -53 -9 -3 -1 -29 -5 -57 -9 -52 -8 -53 -9 -53 -42
l0 -34 278 0 279 0 -2 30 c-2 37 -2 37 -50 44 -134 21 -159 26 -164 35 -7 11
-6 1249 0 1256 3 2 29 -53 58 -123 29 -70 66 -158 83 -197 215 -495 388 -906
388 -924 0 -11 -4 -22 -10 -22 -5 -1 -13 -2 -17 -3 -5 -1 -47 -8 -95 -15 l-88
-13 0 -34 0 -34 90 0 c73 0 90 -3 90 -15 0 -8 -4 -15 -8 -15 -5 0 -9 -6 -9
-12 0 -7 -17 -49 -38 -93 -20 -44 -50 -108 -66 -143 -16 -34 -31 -73 -35 -87
-3 -14 -10 -25 -16 -25 -5 0 -6 -4 -3 -10 3 -5 1 -10 -6 -10 -7 0 -10 -3 -6
-6 3 -4 -1 -21 -10 -38 -10 -17 -18 -33 -18 -36 -3 -10 -23 -55 -60 -135 -61
-134 -65 -143 -65 -154 0 -6 -7 -11 -15 -11 -8 0 -15 -4 -15 -9 0 -8 -66 -26
-83 -23 -4 1 -7 -3 -7 -9 0 -5 -4 -7 -10 -4 -10 6 -12 1 -14 -52 -1 -23 3 -33
14 -34 8 -1 24 -2 35 -3 11 0 27 2 36 6 8 4 21 3 29 -2 9 -5 19 -5 27 2 8 6
13 7 13 1 0 -10 41 -10 57 0 5 3 15 2 23 -3 9 -5 19 -5 27 2 8 6 13 6 13 1 0
-11 29 -11 48 1 7 4 12 2 12 -4 0 -8 6 -7 21 1 15 7 19 8 15 0 -5 -7 -1 -9 9
-5 11 5 15 17 13 46 -3 40 -4 41 -60 58 -31 10 -60 15 -63 12 -10 -10 -25 21
-16 33 4 5 15 28 23 50 9 22 30 72 48 110 57 126 60 133 60 140 0 4 8 14 18
22 9 8 11 11 4 8 -10 -6 -11 -3 -3 11 26 49 60 124 54 124 -3 0 1 7 8 16 7 9
14 23 15 32 2 8 8 18 14 22 7 4 11 9 9 11 -5 9 23 79 32 79 6 0 8 4 4 9 -3 5
-1 12 5 16 6 4 8 11 5 16 -4 5 -1 9 4 9 6 0 10 3 9 8 -1 4 5 23 14 42 l15 35
17 -32 c9 -18 16 -35 17 -38 0 -2 6 -19 14 -37 7 -18 11 -36 9 -40 -3 -5 -1
-8 4 -8 6 0 13 -12 18 -27 12 -43 26 -79 49 -127 8 -16 12 -32 9 -37 -3 -5 0
-9 6 -9 6 0 8 -4 5 -10 -3 -5 -1 -10 4 -10 6 0 11 -6 11 -14 0 -13 29 -91 65
-171 14 -32 24 -62 25 -70 0 -3 8 -20 17 -38 10 -17 18 -36 18 -42 1 -5 7 -20
14 -33 15 -28 0 -53 -30 -47 -10 2 -19 0 -19 -4 0 -5 -19 -12 -42 -17 -41 -9
-43 -11 -45 -46 -2 -41 21 -64 47 -48 8 5 21 5 30 0 11 -6 21 -5 28 2 8 8 12
8 12 1 0 -10 41 -10 57 0 5 3 15 2 23 -3 9 -5 19 -5 27 2 8 6 13 7 13 1 0 -10
41 -10 57 0 5 3 15 2 23 -3 9 -5 19 -5 27 2 8 6 13 6 13 1 0 -11 29 -11 48 1
7 4 12 2 12 -4 0 -7 6 -8 18 -1 11 6 24 6 34 0 21 -12 25 -4 24 46 l-1 40 -60
16 c-48 12 -65 22 -82 49 -13 18 -20 36 -17 41 3 5 0 9 -7 9 -7 0 -10 3 -6 6
3 4 -3 25 -15 48 -11 22 -21 43 -21 46 1 7 -11 37 -46 120 -17 38 -28 70 -25
70 2 0 -4 12 -13 27 -10 15 -17 30 -16 33 1 3 -5 21 -14 40 -28 64 -38 93 -42
115 -1 6 -9 20 -16 32 -8 12 -16 30 -18 40 -2 10 -13 39 -25 65 -35 75 -33 78
53 78 l75 0 0 33 0 34 -87 13 c-124 18 -121 15 -122 110 l-1 80 136 292 c75
161 157 338 183 393 26 55 80 171 121 257 40 87 75 156 78 154 6 -7 5 -1256
-1 -1263 -3 -3 -53 -12 -110 -21 l-104 -15 0 -34 0 -33 332 0 331 0 -4 35 c-3
24 -9 35 -21 36 -9 0 -24 2 -34 4 -10 2 -49 9 -86 15 l-66 11 -1 710 c0 390 3
709 6 710 3 0 14 2 25 4 11 2 55 9 97 15 79 13 90 21 80 63 -4 16 -23 17 -232
17 -170 0 -230 -3 -237 -12 -5 -7 -58 -119 -118 -248 -60 -129 -116 -244 -126
-255 -9 -11 -27 -42 -39 -70 -12 -27 -42 -90 -65 -140 -52 -107 -69 -147 -67
-157 1 -5 -3 -8 -8 -8 -6 0 -10 -5 -10 -11 0 -9 -11 -37 -48 -119 -8 -19 -11
93 -11 448 -1 259 2 472 7 473 4 0 15 2 24 4 9 2 34 5 55 8 127 18 123 17 123
53 l0 34 -325 0 -325 0 0 -34 c0 -32 2 -34 43 -40 23 -4 70 -11 104 -17 l63
-11 0 -381 c-1 -209 -4 -376 -9 -371 -4 5 -88 199 -187 431 l-179 423 -247 0
-246 0 0 -34z"/>
</g>
</svg>
